<svg id="Ebene_1" data-name="Ebene 1" xmlns="http://www.w3.org/2000/svg" viewBox="0 0 254.82 150"><defs><style>.cls-1{fill:#223a78;}.cls-2{fill:#169bd8;}.cls-3{fill:#232f5d;}</style></defs><title>Logo_paypal</title><g id="Logo_paypal"><path class="cls-1" d="M52.43,49.52C49.65,46.36,44.63,45,38.2,45H19.55a2.67,2.67,0,0,0-2.63,2.25L9.15,96.49a1.6,1.6,0,0,0,1.58,1.85H22.25L25.14,80l-.09.57a2.65,2.65,0,0,1,2.62-2.25h5.48c10.74,0,19.16-4.37,21.61-17,.08-.38.14-.74.19-1.1h0c.74-4.66,0-7.84-2.52-10.72"/><path class="cls-2" d="M191.87,60.9H179a1.78,1.78,0,0,0-1.76,1.51l-5.21,33a1.07,1.07,0,0,0,1.06,1.24h6.61a1.25,1.25,0,0,0,1.23-1.06l1.48-9.36a1.79,1.79,0,0,1,1.76-1.51h4.08c8.48,0,13.37-4.1,14.65-12.23.58-3.56,0-6.35-1.64-8.31-1.83-2.15-5.08-3.29-9.38-3.29M193.35,73c-.7,4.62-4.23,4.62-7.64,4.62h-2L185.13,69a1.07,1.07,0,0,1,1.05-.91h.9c2.32,0,4.51,0,5.65,1.33a4.3,4.3,0,0,1,.62,3.59"/><path class="cls-1" d="M100.05,60.9H87.18a1.79,1.79,0,0,0-1.77,1.51l-5.2,33a1.07,1.07,0,0,0,1.06,1.24h6.15a1.78,1.78,0,0,0,1.76-1.51l1.41-8.91a1.78,1.78,0,0,1,1.76-1.51h4.08c8.48,0,13.37-4.1,14.65-12.23.57-3.56,0-6.35-1.64-8.31-1.83-2.15-5.08-3.29-9.39-3.29M101.54,73c-.7,4.62-4.23,4.62-7.65,4.62H92L93.31,69A1.09,1.09,0,0,1,94.37,68h.89c2.33,0,4.52,0,5.65,1.33a4.3,4.3,0,0,1,.63,3.59"/><path class="cls-1" d="M138.53,72.81h-6.17a1.08,1.08,0,0,0-1.06.9L131,75.44l-.43-.63c-1.33-1.93-4.31-2.58-7.28-2.58-6.81,0-12.63,5.16-13.76,12.4a11.63,11.63,0,0,0,2.3,9.47c1.88,2.21,4.56,3.13,7.76,3.13a11.78,11.78,0,0,0,8.53-3.53l-.27,1.72a1.07,1.07,0,0,0,1.06,1.24h5.55a1.79,1.79,0,0,0,1.77-1.51l3.33-21.1a1.07,1.07,0,0,0-1.06-1.24m-8.59,12a6.87,6.87,0,0,1-7,5.88,4.76,4.76,0,0,1-5.1-6,6.89,6.89,0,0,1,6.9-5.93,5.18,5.18,0,0,1,4.11,1.68,5.28,5.28,0,0,1,1.05,4.36"/><path class="cls-2" d="M230.34,72.81h-6.16a1.07,1.07,0,0,0-1.06.9l-.27,1.73-.44-.63c-1.33-1.93-4.31-2.58-7.28-2.58-6.81,0-12.62,5.16-13.76,12.4a11.67,11.67,0,0,0,2.3,9.47c1.88,2.21,4.56,3.13,7.76,3.13A11.82,11.82,0,0,0,220,93.7l-.28,1.72a1.07,1.07,0,0,0,1.06,1.24h5.55a1.79,1.79,0,0,0,1.77-1.51l3.33-21.1a1.07,1.07,0,0,0-1.06-1.24m-8.59,12a6.87,6.87,0,0,1-7,5.88,4.76,4.76,0,0,1-5.1-6,6.89,6.89,0,0,1,6.91-5.93,5.16,5.16,0,0,1,4.1,1.68,5.28,5.28,0,0,1,1.05,4.36"/><path class="cls-1" d="M171.36,72.81h-6.2a1.8,1.8,0,0,0-1.48.78l-8.54,12.59-3.62-12.1a1.8,1.8,0,0,0-1.72-1.27h-6.09a1.07,1.07,0,0,0-1,1.42l6.82,20-6.42,9.06A1.07,1.07,0,0,0,144,105h6.19a1.81,1.81,0,0,0,1.47-.77l20.6-29.74a1.07,1.07,0,0,0-.88-1.68"/><path class="cls-2" d="M237.61,61.81l-5.29,33.61a1.07,1.07,0,0,0,1.06,1.24h5.32a1.78,1.78,0,0,0,1.76-1.51l5.21-33a1.07,1.07,0,0,0-1.06-1.24h-5.94a1.07,1.07,0,0,0-1.06.91"/><path class="cls-1" d="M52.43,49.52C49.65,46.36,44.63,45,38.2,45H19.55a2.67,2.67,0,0,0-2.63,2.25L9.15,96.49a1.6,1.6,0,0,0,1.58,1.85H22.25L25.14,80l-.09.57a2.65,2.65,0,0,1,2.62-2.25h5.48c10.74,0,19.16-4.37,21.61-17,.08-.38.14-.74.19-1.1h0c.74-4.66,0-7.84-2.52-10.72"/><path class="cls-1" d="M28.24,60.31a2.39,2.39,0,0,1,1.3-1.75,2.44,2.44,0,0,1,1-.22H45.17a30.24,30.24,0,0,1,4.82.35c.42.06.83.14,1.23.23s.79.19,1.16.3l.55.17a13.29,13.29,0,0,1,2,.85c.73-4.66,0-7.84-2.53-10.72C49.65,46.36,44.63,45,38.2,45H19.55a2.67,2.67,0,0,0-2.63,2.25L9.15,96.49a1.6,1.6,0,0,0,1.58,1.85H22.25L25.14,80Z"/><path class="cls-2" d="M55,60.24h0c-.06.36-.12.72-.2,1.1-2.45,12.62-10.87,17-21.61,17H27.67a2.65,2.65,0,0,0-2.62,2.25l-2.8,17.76-.8,5A1.4,1.4,0,0,0,22.83,105h9.71a2.33,2.33,0,0,0,2.3-2l.1-.49,1.83-11.6.11-.64a2.34,2.34,0,0,1,2.31-2h1.45c9.4,0,16.76-3.82,18.91-14.86.9-4.62.44-8.47-1.94-11.18a9.39,9.39,0,0,0-2.65-2"/><path class="cls-3" d="M52.38,59.22c-.37-.11-.76-.21-1.16-.3s-.81-.16-1.23-.23a30.24,30.24,0,0,0-4.82-.35H30.55a2.44,2.44,0,0,0-1,.22,2.35,2.35,0,0,0-1.29,1.75L25.14,80l-.09.57a2.65,2.65,0,0,1,2.62-2.25h5.48c10.74,0,19.16-4.37,21.61-17,.08-.38.14-.74.2-1.1a14.38,14.38,0,0,0-2-.85l-.55-.17"/></g></svg>